<svg width="19" height="19" viewBox="0 0 19 19" fill="none" xmlns="http://www.w3.org/2000/svg">
<path fill-rule="evenodd" clip-rule="evenodd" d="M4.75 0.890625C4.75 0.654417 4.84383 0.427883 5.01086 0.260858C5.17788 0.0938334 5.40442 0 5.64062 0C5.87683 0 6.10337 0.0938334 6.27039 0.260858C6.43742 0.427883 6.53125 0.654417 6.53125 0.890625V1.1875H12.4688V0.890625C12.4688 0.654417 12.5626 0.427883 12.7296 0.260858C12.8966 0.0938334 13.1232 0 13.3594 0C13.5956 0 13.8221 0.0938334 13.9891 0.260858C14.1562 0.427883 14.25 0.654417 14.25 0.890625V1.1875H16.3281C17.0368 1.1875 17.7164 1.469 18.2174 1.97007C18.7185 2.47115 19 3.15075 19 3.85938V16.3281C19 17.0368 18.7185 17.7164 18.2174 18.2174C17.7164 18.7185 17.0368 19 16.3281 19H2.67188C1.96325 19 1.28365 18.7185 0.782574 18.2174C0.281501 17.7164 0 17.0368 0 16.3281V3.85938C0 3.15075 0.281501 2.47115 0.782574 1.97007C1.28365 1.469 1.96325 1.1875 2.67188 1.1875H4.75V0.890625ZM14.25 3.85938V2.96875H16.3281C16.5643 2.96875 16.7909 3.06258 16.9579 3.22961C17.1249 3.39663 17.2188 3.62317 17.2188 3.85938V16.3281C17.2188 16.8198 16.8198 17.2188 16.3281 17.2188H2.67188C2.43567 17.2188 2.20913 17.1249 2.04211 16.9579C1.87508 16.7909 1.78125 16.5643 1.78125 16.3281V3.85938C1.78125 3.62317 1.87508 3.39663 2.04211 3.22961C2.20913 3.06258 2.43567 2.96875 2.67188 2.96875H4.75V3.85938C4.75 4.09558 4.84383 4.32212 5.01086 4.48914C5.17788 4.65617 5.40442 4.75 5.64062 4.75C5.87683 4.75 6.10337 4.65617 6.27039 4.48914C6.43742 4.32212 6.53125 4.09558 6.53125 3.85938V2.96875H12.4688V3.85938C12.4688 4.09558 12.5626 4.32212 12.7296 4.48914C12.8966 4.65617 13.1232 4.75 13.3594 4.75C13.5956 4.75 13.8221 4.65617 13.9891 4.48914C14.1562 4.32212 14.25 4.09558 14.25 3.85938Z" fill="white"/>
</svg>
