<svg width="19" height="19" viewBox="0 0 19 19" fill="none" xmlns="http://www.w3.org/2000/svg">
<path fill-rule="evenodd" clip-rule="evenodd" d="M8.69842 4.95541C8.77135 4.80483 8.88522 4.67784 9.02698 4.58899C9.16875 4.50013 9.33268 4.453 9.49998 4.453C9.66729 4.453 9.83122 4.50013 9.97299 4.58899C10.1148 4.67784 10.2286 4.80483 10.3015 4.95541L11.6553 7.75673L14.6787 8.20798C14.8418 8.23247 14.995 8.30182 15.1211 8.40827C15.2471 8.51473 15.3411 8.65412 15.3926 8.81088C15.4441 8.96765 15.451 9.13563 15.4126 9.2961C15.3742 9.45657 15.2919 9.60321 15.175 9.71966L12.9782 11.9047L13.4971 14.9922C13.5249 15.1565 13.506 15.3253 13.4427 15.4794C13.3793 15.6335 13.274 15.7668 13.1386 15.864C13.0033 15.9612 12.8434 16.0185 12.6771 16.0294C12.5108 16.0403 12.3448 16.0043 12.198 15.9255L9.49998 14.4756L6.80198 15.9244C6.65523 16.003 6.48937 16.039 6.32322 16.0281C6.15707 16.0173 5.99729 15.9601 5.86201 15.863C5.72673 15.7659 5.62136 15.6329 5.55788 15.4789C5.4944 15.325 5.47534 15.1564 5.50286 14.9922L6.0218 11.9023L3.82492 9.71848C3.70803 9.60202 3.62579 9.45538 3.58737 9.29491C3.54896 9.13445 3.55587 8.96646 3.60735 8.8097C3.65882 8.65293 3.75284 8.51354 3.8789 8.40709C4.00496 8.30063 4.15812 8.23129 4.3213 8.20679L7.34348 7.75554L8.69724 4.95423L8.69842 4.95541ZM10.2576 8.9561L9.49998 7.3886L8.74236 8.9561C8.67913 9.08668 8.58495 9.19984 8.46801 9.28572C8.35108 9.37161 8.21494 9.42763 8.07142 9.44891L6.33886 9.70779L7.60474 10.9654C7.70552 11.0658 7.78075 11.189 7.82414 11.3245C7.86753 11.4601 7.8778 11.604 7.85411 11.7444L7.5608 13.4971L9.07842 12.6825C9.20802 12.6128 9.35286 12.5764 9.49998 12.5764C9.64711 12.5764 9.79195 12.6128 9.92155 12.6825L11.4392 13.4971L11.1447 11.7444C11.1211 11.6039 11.1316 11.4599 11.1752 11.3244C11.2188 11.1888 11.2942 11.0657 11.3952 10.9654L12.6611 9.7066L10.9274 9.44891C10.7841 9.42745 10.6482 9.37135 10.5314 9.28547C10.4147 9.19959 10.3207 9.08653 10.2576 8.9561Z" fill="white"/>
<path fill-rule="evenodd" clip-rule="evenodd" d="M4.75 0.890625C4.75 0.654417 4.84383 0.427883 5.01086 0.260858C5.17788 0.0938334 5.40442 0 5.64062 0C5.87683 0 6.10337 0.0938334 6.27039 0.260858C6.43742 0.427883 6.53125 0.654417 6.53125 0.890625V1.1875H12.4688V0.890625C12.4688 0.654417 12.5626 0.427883 12.7296 0.260858C12.8966 0.0938334 13.1232 0 13.3594 0C13.5956 0 13.8221 0.0938334 13.9891 0.260858C14.1562 0.427883 14.25 0.654417 14.25 0.890625V1.1875H16.3281C17.0368 1.1875 17.7164 1.469 18.2174 1.97007C18.7185 2.47115 19 3.15075 19 3.85938V16.3281C19 17.0368 18.7185 17.7164 18.2174 18.2174C17.7164 18.7185 17.0368 19 16.3281 19H2.67188C1.96325 19 1.28365 18.7185 0.782574 18.2174C0.281501 17.7164 0 17.0368 0 16.3281V3.85938C0 3.15075 0.281501 2.47115 0.782574 1.97007C1.28365 1.469 1.96325 1.1875 2.67188 1.1875H4.75V0.890625ZM14.25 3.85938V2.96875H16.3281C16.5643 2.96875 16.7909 3.06258 16.9579 3.22961C17.1249 3.39663 17.2188 3.62317 17.2188 3.85938V16.3281C17.2188 16.8198 16.8198 17.2188 16.3281 17.2188H2.67188C2.43567 17.2188 2.20913 17.1249 2.04211 16.9579C1.87508 16.7909 1.78125 16.5643 1.78125 16.3281V3.85938C1.78125 3.62317 1.87508 3.39663 2.04211 3.22961C2.20913 3.06258 2.43567 2.96875 2.67188 2.96875H4.75V3.85938C4.75 4.09558 4.84383 4.32212 5.01086 4.48914C5.17788 4.65617 5.40442 4.75 5.64062 4.75C5.87683 4.75 6.10337 4.65617 6.27039 4.48914C6.43742 4.32212 6.53125 4.09558 6.53125 3.85938V2.96875H12.4688V3.85938C12.4688 4.09558 12.5626 4.32212 12.7296 4.48914C12.8966 4.65617 13.1232 4.75 13.3594 4.75C13.5956 4.75 13.8221 4.65617 13.9891 4.48914C14.1562 4.32212 14.25 4.09558 14.25 3.85938Z" fill="white"/>
</svg>
